<?xml version="1.0" encoding="UTF-8"?>
<svg id="Layer_1" data-name="Layer 1" xmlns="http://www.w3.org/2000/svg" viewBox="0 0 257.62 100.83">
  <defs>
    <style>
      .cls-1 {
        stroke: #b31942;
      }

      .cls-1, .cls-2 {
        fill: none;
        stroke-width: 10px;
      }

      .cls-2 {
        stroke: #0a3161;
      }

      .cls-3 {
        fill: #b31942;
      }

      .cls-4 {
        fill: #0a3161;
      }

      .cls-5 {
        fill: #fff;
      }
    </style>
  </defs>
  <path class="cls-3" d="M46.72,30.94l17.56,43.52h-10.65l-3.23-8.71h-16.56l-3.21,8.71h-10.67l17.56-43.52h9.19ZM47.04,57.05l-4.85-12.65h-.1l-4.85,12.65h9.81Z"/>
  <path class="cls-3" d="M83.6,30.94l17.56,43.52h-10.65l-3.23-8.71h-16.56l-3.21,8.71h-10.67l17.56-43.52h9.19ZM83.91,57.05l-4.85-12.65h-.1l-4.85,12.65h9.81Z"/>
  <path class="cls-5" d="M98.37,30.94h15.56c4.18,0,7.59,1.12,10.23,3.35,2.63,2.24,3.96,5.43,3.96,9.56,0,3.21-.8,5.9-2.4,8.06-1.6,2.16-3.77,3.68-6.52,4.56l14.98,17.98h-12.6l-13.29-17.19v17.19h-9.92V30.94ZM108.29,50.25h1.17c.9,0,1.67-.01,2.31-.04.64-.04,1.36-.17,2.17-.38.8-.22,1.45-.52,1.94-.9.5-.39.92-.95,1.27-1.69.36-.75.54-1.65.54-2.71s-.18-1.95-.54-2.69c-.35-.74-.77-1.3-1.27-1.69-.49-.38-1.13-.69-1.94-.9-.81-.21-1.53-.32-2.17-.35-.64-.04-1.41-.06-2.31-.06h-1.17v11.4Z"/>
  <path class="cls-5" d="M131.65,30.94h13.5c4.08,0,7.33.88,9.75,2.62,2.43,1.74,3.65,4.56,3.65,8.46,0,4.37-1.81,7.47-5.44,9.33,6.19,1.08,9.29,4.75,9.29,10.98,0,3.66-1.27,6.59-3.81,8.81-2.53,2.21-6.01,3.31-10.44,3.31h-16.5V30.94ZM141.57,47.98h.79c2.21,0,3.85-.38,4.94-1.15,1.09-.78,1.64-2.05,1.64-3.81,0-2.96-2.2-4.44-6.58-4.44h-.79v9.4ZM141.57,66.82h3.11c4.86,0,7.29-1.61,7.29-4.85,0-1.93-.61-3.32-1.83-4.17-1.21-.84-3.03-1.27-5.46-1.27h-3.11v10.29Z"/>
  <path class="cls-4" d="M184.41,30.94l17.56,43.52h-10.65l-3.23-8.71h-16.56l-3.21,8.71h-10.67l17.56-43.52h9.19ZM184.72,57.05l-4.85-12.65h-.1l-4.85,12.65h9.81Z"/>
  <path class="cls-4" d="M221.28,30.94l17.56,43.52h-10.65l-3.23-8.71h-16.56l-3.21,8.71h-10.67l17.56-43.52h9.19ZM221.6,57.05l-4.85-12.65h-.1l-4.85,12.65h9.81Z"/>
  <path class="cls-1" d="M.43,95.96h84.43"/>
  <path class="cls-1" d="M5.19,18.23v82.46"/>
  <path class="cls-2" d="M252.86,4.96h-84.43"/>
  <path class="cls-2" d="M252.42,82.31V-.15"/>
</svg>